<svg width="146" height="42" viewBox="0 0 146 42" fill="none" xmlns="http://www.w3.org/2000/svg">
<circle cx="21" cy="21" r="21" fill="#E40046"/>
<path d="M10.7334 31.1139C12.3518 30.6566 14.1565 29.9117 15.6486 29.1591C16.6718 28.643 17.949 28.8747 18.6382 29.7903C17.2518 30.7917 15.6452 31.658 13.8185 32.3991C12.6185 32.8859 11.276 32.2897 10.7334 31.1139Z" fill="white"/>
<path d="M28.5578 32.0278C26.9352 31.1347 25.2877 30.3973 23.6154 29.8157C24.2245 28.8524 25.4197 28.4344 26.4783 28.8567C28.323 29.5925 30.3516 30.5113 31.691 31.2666C31.032 32.319 29.6457 32.6265 28.5578 32.0278Z" fill="white"/>
<path fill-rule="evenodd" clip-rule="evenodd" d="M11.0865 12.7528H19.8898C19.8165 13.1855 19.7431 13.6182 19.6453 14.0509H17.4908C15.3719 14.0509 13.6542 15.7687 13.6542 17.8876V25.0563C13.6542 25.5434 13.2593 25.9382 12.7723 25.9382H12.3199C11.1391 25.9382 10.1818 26.8955 10.1818 28.0764H29.8072C30.9881 28.0764 31.9454 27.1191 31.9454 25.9382H29.858C29.2957 25.9382 28.8398 25.4824 28.8398 24.92V14.0509H21.9928C22.0517 13.8056 22.1018 13.5511 22.1536 13.2873C22.1879 13.1131 22.2229 12.935 22.2618 12.7528H28.9533C30.1061 12.7528 31.0406 11.8183 31.0406 10.6655H22.6042C22.6894 9.867 22.1488 9.15171 21.3536 9.03962L20.4278 8.90912C20.3789 9.46912 20.3055 10.0546 20.2077 10.6655H13.1738C12.021 10.6655 11.0865 11.6 11.0865 12.7528ZM17.0511 24.4823C16.2329 24.4823 15.5697 25.1456 15.5697 25.9637H25.6277C26.4458 25.9637 27.1091 25.3005 27.1091 24.4823H17.0511ZM16.9489 21.6558C16.1872 21.6558 15.5697 22.2733 15.5697 23.035H25.7299C26.4916 23.035 27.1091 22.4175 27.1091 21.6558H16.9489ZM16.9489 18.7441C16.1872 18.7441 15.5697 19.3616 15.5697 20.1233H25.7299C26.4916 20.1233 27.1091 19.5058 27.1091 18.7441H16.9489ZM16.9745 15.9516C16.1986 15.9516 15.5697 16.5805 15.5697 17.3563H25.7043C26.4802 17.3563 27.1091 16.7274 27.1091 15.9516H16.9745Z" fill="white"/>
<path d="M54.228 31.196V30.404H53.052V29.96C53.052 29.228 53.376 28.82 53.964 28.82C54.168 28.82 54.336 28.868 54.48 28.952L54.708 28.28C54.48 28.136 54.168 28.076 53.832 28.076C52.824 28.076 52.152 28.76 52.152 29.96V30.404H51.192V31.196H52.152V36.2H53.052V31.196H54.228ZM54.9744 38.468C55.1424 38.516 55.4424 38.552 55.6344 38.552C56.4024 38.54 56.9904 38.216 57.3384 37.376L60.2424 30.404H59.2584L57.3384 35.156L55.4064 30.404H54.4344L56.8584 36.26L56.4744 37.136C56.2704 37.616 56.0064 37.748 55.6104 37.748C55.4664 37.748 55.2504 37.712 55.1184 37.652L54.9744 38.468ZM66.2812 36.2V28.196H65.3813V31.28C64.9133 30.644 64.2053 30.26 63.4253 30.26C61.9013 30.26 60.8453 31.46 60.8453 33.308C60.8453 35.192 61.9133 36.344 63.4253 36.344C64.2413 36.344 64.9493 35.924 65.3813 35.336V36.2H66.2812ZM65.3813 34.628C65.0573 35.132 64.3613 35.54 63.6413 35.54C62.4773 35.54 61.7812 34.592 61.7812 33.308C61.7812 32.024 62.4773 31.064 63.6413 31.064C64.3613 31.064 65.0573 31.496 65.3813 32V34.628ZM67.7476 33.296C67.7476 35.108 68.9836 36.344 70.6996 36.344C71.6476 36.344 72.4276 36.032 73.0036 35.456L72.5716 34.868C72.1156 35.336 71.4436 35.6 70.7836 35.6C69.5356 35.6 68.7676 34.688 68.6956 33.596H73.3876V33.368C73.3876 31.628 72.3556 30.26 70.6036 30.26C68.9476 30.26 67.7476 31.616 67.7476 33.296ZM70.5916 31.004C71.9116 31.004 72.4876 32.072 72.4996 32.936H68.6956C68.7436 32.048 69.3556 31.004 70.5916 31.004ZM80.6893 36.2L78.5293 32.936C79.6213 32.84 80.6053 32.048 80.6053 30.608C80.6053 29.132 79.5613 28.196 78.0973 28.196H74.8813V36.2H75.8773V33.02H77.4733L79.5133 36.2H80.6893ZM79.5733 30.608C79.5733 31.508 78.9253 32.144 77.9773 32.144H75.8773V29.084H77.9773C78.9253 29.084 79.5733 29.708 79.5733 30.608ZM86.9701 36.2V32.108C86.9701 30.848 86.3341 30.26 85.1221 30.26C84.2461 30.26 83.4541 30.764 83.0461 31.244V28.196H82.1461V36.2H83.0461V31.964C83.3941 31.496 84.0661 31.064 84.7621 31.064C85.5421 31.064 86.0701 31.364 86.0701 32.384V36.2H86.9701ZM88.4432 38.468C88.6112 38.516 88.9112 38.552 89.1032 38.552C89.8712 38.54 90.4592 38.216 90.8072 37.376L93.7112 30.404H92.7272L90.8072 35.156L88.8752 30.404H87.9032L90.3272 36.26L89.9432 37.136C89.7392 37.616 89.4752 37.748 89.0792 37.748C88.9352 37.748 88.7192 37.712 88.5872 37.652L88.4432 38.468ZM96.114 36.344C96.642 36.344 96.966 36.188 97.194 35.972L96.93 35.3C96.81 35.432 96.57 35.54 96.318 35.54C95.922 35.54 95.73 35.228 95.73 34.796V31.196H96.906V30.404H95.73V28.82H94.83V30.404H93.87V31.196H94.83V34.988C94.83 35.852 95.262 36.344 96.114 36.344ZM103.001 36.2V32.108C103.001 30.848 102.365 30.26 101.153 30.26C100.277 30.26 99.4853 30.764 99.0773 31.244V28.196H98.1773V36.2H99.0773V31.964C99.4253 31.496 100.097 31.064 100.793 31.064C101.573 31.064 102.101 31.364 102.101 32.384V36.2H103.001ZM112.694 36.2V32.012C112.694 30.848 112.13 30.26 111.074 30.26C110.234 30.26 109.454 30.812 109.13 31.34C108.962 30.74 108.458 30.26 107.57 30.26C106.718 30.26 105.938 30.872 105.698 31.244V30.404H104.798V36.2H105.698V31.964C106.01 31.496 106.634 31.064 107.222 31.064C107.978 31.064 108.29 31.532 108.29 32.264V36.2H109.19V31.952C109.49 31.496 110.126 31.064 110.726 31.064C111.47 31.064 111.794 31.532 111.794 32.264V36.2H112.694Z" fill="black" fill-opacity="0.3"/>
<path d="M56.238 14.4668H62.412V15.1913H56.238V14.4668ZM62.412 9.42676V10.104H56.238V9.42676H62.412ZM62.412 12.7973V13.4115H56.238V12.7973H62.412ZM62.412 11.7578H56.238V11.1593H62.412V11.7578ZM66.3337 16.7348V15.1913H64.302V8.26126H60.018C60.0652 8.04076 60.0967 7.80451 60.1597 7.55251H65.9557V5.99326H60.459L60.6165 5.07976L58.6477 4.89076C58.632 5.22151 58.5847 5.59951 58.5532 5.99326H52.7572V7.55251H58.3327C58.2855 7.80451 58.2382 8.04076 58.191 8.26126H54.4267V15.1913H52.332V16.7348H56.6317C55.6237 17.349 53.781 18.0263 52.2532 18.3728C52.6627 18.7193 53.2297 19.2863 53.529 19.6485C55.0882 19.2705 57.0412 18.5145 58.2855 17.7585L56.8207 16.7348H61.4197L60.4117 17.7743C62.1442 18.294 63.9082 19.0658 64.9477 19.6328L66.507 18.3728C65.4675 17.8688 63.7665 17.223 62.16 16.7348H66.3337ZM77.7524 9.39526C77.1382 11.1278 76.272 12.561 75.1852 13.758C73.9724 12.5138 73.0274 11.049 72.3502 9.39526H77.7524ZM82.2727 9.39526V7.56826H75.4214L76.776 7.14301C76.5869 6.49726 76.1145 5.48926 75.705 4.76476L73.7047 5.34751C74.067 6.04051 74.4135 6.92251 74.5867 7.56826H67.9402V9.39526H70.413C71.2635 11.616 72.3502 13.506 73.7677 15.0653C72.1297 16.341 70.098 17.2388 67.641 17.853C68.019 18.2783 68.5702 19.1603 68.775 19.6013C71.3107 18.8768 73.4212 17.8373 75.1537 16.4198C76.8074 17.8058 78.8392 18.8453 81.3119 19.5068C81.5954 18.987 82.1467 18.168 82.572 17.7585C80.2252 17.2073 78.2407 16.2938 76.6185 15.0338C77.9887 13.506 79.0597 11.6633 79.8629 9.39526H82.2727ZM87.9899 8.00926C87.8639 8.63926 87.6119 9.52126 87.3914 10.1198H85.0762L86.4149 9.82051C86.3204 9.34801 86.1314 8.59201 85.9424 8.00926H87.9899ZM90.4312 10.1198H88.9664C89.1712 9.58426 89.3759 8.93851 89.6122 8.29276L88.3522 8.00926H90.2894V6.43426H87.9269C87.7064 5.89876 87.4229 5.26876 87.1394 4.74901L85.6747 5.28451C85.8164 5.63101 85.9897 6.02476 86.1472 6.43426H83.7059V8.00926H85.6747L84.4304 8.24551C84.6037 8.82826 84.7612 9.58426 84.8557 10.1198H83.4697V11.7105H90.4312V10.1198ZM88.2419 13.9628V14.9393H85.8794V13.9628H88.2419ZM85.8794 17.5065V16.3725H88.2419V17.5065H85.8794ZM89.9744 12.4665H84.1784V19.617H85.8794V18.987H89.9744V12.4665ZM95.2349 13.443C93.4237 14.199 91.5337 14.9708 90.3367 15.4118L90.8879 17.1758C92.2739 16.5143 93.9592 15.6638 95.5657 14.8605L95.2349 13.443ZM94.6207 12.3405C94.1167 11.742 93.1717 10.8443 92.3369 10.167L91.1084 11.2065C91.8959 11.8995 92.8567 12.939 93.3292 13.5533L94.6207 12.3405ZM93.3292 7.30051C93.6127 6.65476 93.8647 6.00901 94.0694 5.34751L92.3212 4.92226C91.7857 6.63901 90.9194 8.40301 89.9114 9.53701C90.3367 9.77326 91.0927 10.293 91.4077 10.5765C91.7542 10.1513 92.1007 9.64726 92.4314 9.06451H95.8807C95.7547 14.8133 95.5814 17.1285 95.1719 17.6168C94.9987 17.8373 94.8412 17.9003 94.5577 17.9003C94.1797 17.9003 93.3922 17.9003 92.5102 17.8215C92.8252 18.3255 93.0614 19.113 93.0929 19.617C93.9434 19.6485 94.8412 19.6643 95.3924 19.5698C95.9909 19.4595 96.4004 19.2863 96.8099 18.7035C97.3927 17.9003 97.5502 15.3803 97.7077 8.18251C97.7077 7.94626 97.7234 7.30051 97.7234 7.30051H93.3292ZM104.512 14.3408L103.488 14.5455V13.1753H104.464V11.49H103.488V9.33226H101.913V11.49H101.11C101.44 10.545 101.787 9.45826 102.07 8.34001H104.527V6.67051H102.433C102.543 6.16651 102.622 5.67826 102.685 5.19001L100.984 4.95376C100.936 5.52076 100.873 6.10351 100.795 6.67051H99.2984V8.34001H100.495C100.275 9.44251 100.039 10.3245 99.9127 10.671C99.6764 11.364 99.5032 11.8365 99.2039 11.931C99.3929 12.3248 99.6449 13.1123 99.7237 13.4115C99.8497 13.2698 100.417 13.1753 100.889 13.1753H101.913V14.8605C100.905 15.0495 99.9757 15.2228 99.2512 15.333L99.6134 17.0813C100.306 16.9238 101.11 16.7505 101.913 16.5458V19.5855H103.488V16.1835L104.638 15.9L104.512 14.3408ZM106.543 15.207V14.4038H108.071V15.207H106.543ZM108.071 12.2618V13.0808H106.543V12.2618H108.071ZM109.536 10.86H105.063V19.5698H106.543V16.53H108.071V17.9003C108.071 18.042 108.024 18.0893 107.882 18.0893C107.74 18.0893 107.347 18.0893 106.953 18.0735C107.142 18.483 107.299 19.113 107.331 19.5383C108.071 19.5383 108.622 19.5068 109.016 19.2705C109.441 19.0185 109.536 18.5933 109.536 17.916V10.86ZM112.072 17.7743C112.072 17.9475 112.024 17.9948 111.82 18.0105C111.599 18.0105 110.938 18.0105 110.245 17.9948C110.449 18.42 110.638 19.0343 110.701 19.4595C111.694 19.4595 112.402 19.4123 112.891 19.1918C113.395 18.9555 113.505 18.5303 113.505 17.7743V10.671H112.072V17.7743ZM111.457 11.2695H110.071V17.0183H111.457V11.2695ZM107.362 8.63926C108.024 8.15101 108.67 7.63126 109.221 7.06426C109.788 7.66276 110.386 8.16676 111.016 8.63926H107.362ZM109.032 4.79626C107.945 6.37126 105.882 7.77301 104.008 8.56051C104.449 8.93851 104.937 9.52126 105.205 9.96226C105.457 9.83626 105.709 9.69451 105.976 9.53701V10.104H112.276V9.44251C112.56 9.60001 112.843 9.75751 113.127 9.91501C113.332 9.42676 113.82 8.85976 114.245 8.46601C112.733 7.85176 111.363 7.11151 110.213 5.94601C110.323 5.78851 110.434 5.64676 110.544 5.48926L109.032 4.79626ZM118.75 6.63901C119.726 7.30051 120.529 8.11951 121.191 9.04876C120.277 13.2383 118.34 16.278 114.985 17.9318C115.489 18.294 116.356 19.0658 116.702 19.4595C119.537 17.79 121.49 15.1283 122.719 11.5215C124.325 14.4668 125.68 17.6955 128.908 19.5068C129.003 18.924 129.507 17.8688 129.806 17.349C124.75 14.1518 124.908 8.68651 119.899 5.01676L118.75 6.63901ZM135.728 6.67051C135.067 6.16651 133.728 5.47351 132.736 5.07976L131.712 6.46576C132.72 6.92251 134.011 7.67851 134.641 8.21401L135.728 6.67051ZM134.767 10.8285C134.09 10.3088 132.751 9.66301 131.775 9.28501L130.783 10.6868C131.791 11.1278 133.114 11.868 133.728 12.3878L134.767 10.8285ZM132.925 19.4595C133.854 17.9318 134.862 16.1363 135.697 14.4983L134.311 13.2383C133.381 15.0653 132.184 17.0025 131.334 18.1995L132.925 19.4595ZM145.304 18.7823C144.895 17.5065 143.745 15.6795 142.705 14.3093L141.178 15.0653C141.54 15.5535 141.902 16.1205 142.233 16.6875L138.532 17.0655C139.303 15.8685 140.091 14.451 140.721 13.0178H145.005V11.2538H141.209V9.03301H144.422V7.25326H141.209V4.90651H139.303V7.25326H136.201V9.03301H139.303V11.2538H135.571V13.0178H138.532C137.902 14.577 137.146 15.963 136.862 16.3883C136.5 16.9553 136.201 17.286 135.838 17.3963C136.075 17.9318 136.39 18.861 136.5 19.2705C137.02 19.0028 137.823 18.8768 143.083 18.2468C143.32 18.735 143.524 19.2233 143.619 19.6328L145.304 18.7823Z" fill="black"/>
</svg>
